<svg width="180" height="28" viewBox="0 0 180 28" xmlns="http://www.w3.org/2000/svg">
  <path d="M21.36.98l-.75 2.91c-1.79-.5-3.72-.75-5.8-.75-3.4 0-6.11.95-8.14 2.85-2.03 1.9-3.04 4.4-3.04 7.49 0 3.1 1.02 5.6 3.04 7.5 2.03 1.92 4.74 2.88 8.14 2.88 1.63 0 3.56-.27 5.8-.8l.71 2.92A23.26 23.26 0 0 1 14.57 27c-4.19 0-7.66-1.3-10.42-3.91A12.69 12.69 0 0 1 0 13.48c0-3.8 1.38-7 4.13-9.59C6.88 1.29 10.36 0 14.57 0c2.53 0 4.79.33 6.8.98zM50.4 27H32.25V.92h18.14v3.1H35.92v7.94H48.8v3.1h-12.9v8.85H50.4V27zM83.31 4.05h-8.92V27h-3.61V4.05H61.8V.92h21.5v3.13zm23.65 9.44c1.49 0 2.68-.44 3.59-1.31a4.67 4.67 0 0 0 1.35-3.5 4.5 4.5 0 0 0-1.43-3.45 4.96 4.96 0 0 0-3.5-1.33h-8.63V27h-3.6V.92h12.65c2.43 0 4.4.77 5.9 2.3a7.53 7.53 0 0 1 2.25 5.45c0 1.68-.48 3.18-1.45 4.5a7.32 7.32 0 0 1-4 2.75L118.25 27h-4.27l-9.92-13.5h2.9zM147.14 27H129V.92h18.14v3.1h-14.47v7.94h12.89v3.1h-12.9v8.85h14.48V27zm32.86.1h-21.4V23.9l16.86-19.89h-16.35V.92h20.65v3.15l-16.82 19.92H180v3.1z" fill="#111"/>
</svg>
